<?xml version="1.0" encoding="UTF-8" standalone="no"?>
<svg
   xmlns:dc="http://purl.org/dc/elements/1.1/"
   xmlns:cc="http://creativecommons.org/ns#"
   xmlns:rdf="http://www.w3.org/1999/02/22-rdf-syntax-ns#"
   xmlns:svg="http://www.w3.org/2000/svg"
   xmlns="http://www.w3.org/2000/svg"
   id="svg38"
   style="clip-rule:evenodd;fill-rule:evenodd;stroke-linejoin:round;stroke-miterlimit:1.41420996"
   xml:space="preserve"
   version="1.1"
   viewBox="0 0 77.877998 77.877998"
   height="77.877998"
   width="77.877998"><metadata
     id="metadata44"><rdf:RDF><cc:Work
         rdf:about=""><dc:format>image/svg+xml</dc:format><dc:type
           rdf:resource="http://purl.org/dc/dcmitype/StillImage" /><dc:title></dc:title></cc:Work></rdf:RDF></metadata><defs
     id="defs42" /><g
     transform="translate(0,-20.790001)"
     id="g125"><path
       d="m 47.583,65.021 9.274,-8.004 9.275,8.004 v 6.514 H 47.583 Z"
       style="fill:#6449d6"
       id="path10" /><rect
       x="32.055"
       y="47.923"
       width="10.865"
       height="23.612"
       style="fill:#f5aa00"
       id="rect12" /><path
       d="m 19.036,65.675 c -0.438,0.365 -1.053,0.526 -1.645,0.377 -0.917,-0.231 -1.433,-1.119 -1.15,-1.983 -0.703,0.633 -1.805,0.633 -2.458,0.002 -0.653,-0.632 -0.613,-1.658 0.09,-2.291 -0.935,0.232 -1.869,-0.281 -2.083,-1.144 -0.214,-0.864 0.372,-1.753 1.307,-1.985 -0.917,-0.231 -1.433,-1.119 -1.151,-1.983 0.283,-0.864 1.257,-1.378 2.174,-1.147 -0.653,-0.632 -0.613,-1.659 0.09,-2.291 0.703,-0.633 1.804,-0.634 2.457,-0.002 -0.214,-0.863 0.372,-1.753 1.307,-1.985 0.936,-0.232 1.869,0.28 2.083,1.144 0.283,-0.864 1.256,-1.378 2.174,-1.147 0.917,0.231 1.432,1.119 1.15,1.983 0.703,-0.633 1.804,-0.634 2.458,-0.002 0.653,0.632 0.612,1.658 -0.091,2.291 0.936,-0.232 1.869,0.281 2.084,1.144 0.214,0.863 -0.372,1.753 -1.307,1.985 0.917,0.231 1.433,1.119 1.15,1.983 -0.282,0.864 -1.256,1.378 -2.173,1.147 0.653,0.632 0.613,1.658 -0.09,2.291 -0.703,0.633 -1.804,0.634 -2.458,0.002 0.215,0.863 -0.371,1.753 -1.306,1.985 C 21.279,66.14 20.91,66.116 20.586,66 v 5.535 h -1.55 z"
       style="fill:#7ca12b"
       id="path14" /><path
       d="m 66.132,41.58 h 0.219 c 3.551,0 6.61,0.945 6.61,4.726 v 9.491 c 0,2.911 2.021,3.554 4.917,3.554 v 0.756 c -2.896,0 -4.917,0.643 -4.917,3.554 v 9.491 c 0,3.781 -3.059,4.726 -6.61,4.726 h -0.219 v -0.756 c 3.387,0 5.736,-0.757 5.736,-4.159 v -9.34 c 0,-2.306 1.311,-3.44 3.169,-3.894 -1.858,-0.454 -3.169,-1.55 -3.169,-3.894 v -9.34 c 0,-3.402 -2.349,-4.159 -5.736,-4.159 z"
       style="fill:#615e5c;fill-rule:nonzero"
       id="path16" /><path
       d="m 11.746,41.58 h -0.218 c -3.551,0 -6.611,0.945 -6.611,4.726 v 9.491 c 0,2.911 -2.021,3.554 -4.917,3.554 v 0.756 c 2.896,0 4.917,0.643 4.917,3.554 v 9.491 c 0,3.781 3.06,4.726 6.611,4.726 h 0.218 v -0.756 c -3.387,0 -5.736,-0.757 -5.736,-4.159 v -9.34 c 0,-2.306 -1.311,-3.44 -3.169,-3.894 1.858,-0.454 3.169,-1.55 3.169,-3.894 v -9.34 c 0,-3.402 2.349,-4.159 5.736,-4.159 z"
       style="fill:#615e5c;fill-rule:nonzero"
       id="path18" /></g><g
     transform="translate(-0.335,40.693)"
     id="g36"><path
       id="path20"
       style="fill:#615e5c;fill-rule:nonzero"
       d="m 86.469,18.945 v -1.28 c 0,-7.84 2.336,-10.944 6.784,-10.944 h 0.192 c 4.128,0 5.984,2.304 5.984,8.064 h 1.344 v -0.8 c 0,-5.44 -2.368,-8.48 -7.488,-8.48 -5.44,0 -8.16,3.52 -8.16,12.16 v 1.28 c 0,8.64 2.72,12.16 8.16,12.16 5.12,0 7.488,-3.04 7.488,-8 v -0.32 h -1.344 c 0,4.64 -1.792,7.104 -5.984,7.104 h -0.192 c -4.512,0 -6.784,-3.104 -6.784,-10.944 z" /><path
       id="path22"
       style="fill:#615e5c;fill-rule:nonzero"
       d="m 105.093,30.785 h 1.28 v -16.96 h -1.28 z m 1.6,-23.52 h -1.92 v 1.92 h 1.92 z" /><path
       id="path24"
       style="fill:#615e5c;fill-rule:nonzero"
       d="m 114.053,13.825 v -4.8 h -1.28 v 4.8 h -2.72 v 1.216 h 2.72 v 11.424 c 0,3.36 1.92,4.64 4.48,4.64 1.28,0 2.016,-0.224 2.24,-0.32 v -1.184 c -0.288,0.128 -1.152,0.288 -1.92,0.288 -2.336,0 -3.52,-0.704 -3.52,-3.584 V 15.041 h 5.76 v -1.216 z" /><path
       id="path26"
       style="fill:#615e5c;fill-rule:nonzero"
       d="m 129.093,28.705 -5.408,-14.88 h -1.344 l 6.112,16.384 -2.624,6.976 h 1.408 l 2.496,-6.976 6.112,-16.384 h -1.344 z" /><path
       id="path28"
       style="fill:#615e5c;fill-rule:nonzero"
       d="m 147.877,5.825 v 16.96 c 0,4.96 -1.376,7.104 -4.736,7.104 -3.36,0 -4.736,-2.144 -4.736,-7.104 h -1.216 v 0.32 c 0,5.056 1.472,8 5.952,8 4.48,0 6.016,-3.04 6.016,-8 V 5.825 Z" /><path
       id="path30"
       style="fill:#615e5c;fill-rule:nonzero"
       d="m 160.741,18.465 c 4.64,0.64 6.752,2.272 6.752,5.632 v 0.32 c 0,3.52 -2.656,5.472 -6.4,5.472 h -0.192 c -3.712,0 -6.464,-2.272 -6.464,-7.104 h -1.28 v 0.32 c 0,4.864 2.752,8 7.84,8 4.672,0 7.84,-2.56 7.84,-6.848 v -0.32 c 0,-3.52 -2.048,-5.888 -7.488,-6.624 -4.896,-0.672 -6.528,-2.464 -6.528,-5.408 v -0.32 c 0,-3.04 2.688,-4.864 6.08,-4.864 h 0.192 c 4.256,0 6.144,2.176 6.144,7.424 h 1.28 v -0.8 c 0,-4.928 -2.176,-7.84 -7.52,-7.84 -4.384,0 -7.52,2.4 -7.52,6.4 v 0.32 c 0,2.848 1.824,5.504 7.264,6.24 z" /><path
       id="path32"
       style="fill:#615e5c;fill-rule:nonzero"
       d="m 180.677,31.105 c 5.44,0 8.224,-3.52 8.224,-12.16 v -1.28 c 0,-8.64 -2.784,-12.16 -8.224,-12.16 -5.44,0 -8.224,3.52 -8.224,12.16 v 1.28 c 0,8.64 2.784,12.16 8.224,12.16 z m -0.096,-1.216 c -4.544,0 -6.784,-3.104 -6.784,-10.944 v -1.28 c 0,-7.84 2.24,-10.944 6.784,-10.944 h 0.192 c 4.544,0 6.784,3.104 6.784,10.944 v 1.28 c 0,7.84 -2.24,10.944 -6.784,10.944 z" /><path
       id="path34"
       style="fill:#615e5c;fill-rule:nonzero"
       d="m 209.157,5.825 h -1.216 v 16.96 l 0.096,6.08 -13.12,-23.04 h -1.44 v 24.96 h 1.216 v -16.96 l -0.096,-6.08 13.12,23.04 h 1.44 z" /></g></svg>